<?xml version="1.0" encoding="utf-8"?>
<!-- Generator: Adobe Illustrator 23.0.1, SVG Export Plug-In . SVG Version: 6.00 Build 0)  -->
<svg version="1.1" id="msi.ser" xmlns="http://www.w3.org/2000/svg" xmlns:xlink="http://www.w3.org/1999/xlink" x="0px" y="0px"
	 viewBox="0 0 525 119" style="enable-background:new 0 0 525 119;" xml:space="preserve">
<style type="text/css">
	.st0{font-family:'Arial-BoldMT';}
	.st1{font-size:12.0756px;}
	.st2{font-family:'Arial-BoldItalicMT';}
	.st3{fill:#FFFFFF;}
	.st4{font-size:10.0382px;}
</style>
<g id="KB_psbs_bs_chosen-02.tif">
	
		<image style="overflow:visible;enable-background:new    ;" width="700" height="700" xlink:href="38021FCF.png"  transform="matrix(0.1463 0 0 0.1463 0 15.0508)">
	</image>
</g>
<g id="KB_psbs_co_chosen.tif">
	
		<image style="overflow:visible;enable-background:new    ;" width="700" height="700" xlink:href="38021FCD.png"  transform="matrix(0.1463 0 0 0.1463 105.4015 15.0508)">
	</image>
</g>
<g id="KB_psbs_ps.tif">
	
		<image style="overflow:visible;enable-background:new    ;" width="700" height="700" xlink:href="38021FD3.png"  transform="matrix(0.1463 0 0 0.1463 210.8031 15.0508)">
	</image>
</g>
<g id="KB_psdhbA_bs_chosen.tif">
	
		<image style="overflow:visible;enable-background:new    ;" width="700" height="700" xlink:href="38021FD5.png"  transform="matrix(0.1463 0 0 0.1463 316.2046 15.0508)">
	</image>
</g>
<g id="KB_psdhbA_co_chosen.tif">
	
		<image style="overflow:visible;enable-background:new    ;" width="700" height="700" xlink:href="38021FD7.png"  transform="matrix(0.1463 0 0 0.1463 422.61 15.0508)">
	</image>
</g>
<text transform="matrix(1 0 0 1 37.9761 12.0768)" class="st0 st1">3610</text>
<text transform="matrix(1 0 0 1 121.624 12.0768)" class="st0 st1">PS92 + 3610</text>
<text transform="matrix(1 0 0 1 248.4355 12.0768)" class="st0 st1">PS92</text>
<text transform="matrix(1 0 0 1 353.1621 12.0768)" class="st2 st1">dhbA</text>
<text transform="matrix(1 0 0 1 436.8096 12.0768)" class="st0 st1">PS92 + dhbA</text>
<text transform="matrix(1 0 0 1 492.8779 108.4073)" class="st3 st0 st4">3 mm</text>
<path class="st3" d="M490.9,110.4v4h30.2v-4H490.9z"/>
</svg>
